PathFileType	4	(X/Y/Z)	Run_200 02
DataRate	CameraRate	NumFrames	NumMarkers	Units	OrigDataRate	OrigDataStartFrame	OrigNumFrames
120	120	4	41	mm	120	327	125
Frame#	Time	LASI			RASI			LPSI			RPSI			RTH1			RTH3			LTH1			LTH2			LTH3			RTB1			RTB2			RTB3			LTB1			LTB2			LTB3			RCAL			RTOE			RMT5			LCAL			LTOE			LMT5			LACR			RACR			CLAV			C7			RUA1			RUA2			RUA3			RLEL			RMEL			LUA1			LUA2			LUA3			LLEL			LMEL			RFAsuperior			RFAradius			RFAulna			LFAsuperior			LFAradius			LFAulna		
		X1	Y1	Z1	X2	Y2	Z2	X3	Y3	Z3	X4	Y4	Z4	X5	Y5	Z5	X6	Y6	Z6	X7	Y7	Z7	X8	Y8	Z8	X9	Y9	Z9	X10	Y10	Z10	X11	Y11	Z11	X12	Y12	Z12	X13	Y13	Z13	X14	Y14	Z14	X15	Y15	Z15	X16	Y16	Z16	X17	Y17	Z17	X18	Y18	Z18	X19	Y19	Z19	X20	Y20	Z20	X21	Y21	Z21	X22	Y22	Z22	X23	Y23	Z23	X24	Y24	Z24	X25	Y25	Z25	X26	Y26	Z26	X27	Y27	Z27	X28	Y28	Z28	X29	Y29	Z29	X30	Y30	Z30	X31	Y31	Z31	X32	Y32	Z32	X33	Y33	Z33	X34	Y34	Z34	X35	Y35	Z35	X36	Y36	Z36	X37	Y37	Z37	X38	Y38	Z38	X39	Y39	Z39	X40	Y40	Z40	X41	Y41	Z41	

327	  2.725000	916.188364	1068.617795	-393.782525	916.422264	1054.171627	-166.578122	758.622015	1105.518335	-326.883569	755.532765	1107.419737	-230.461213	818.607832	899.902041	-103.629809	747.685771	646.625556	-144.595509	896.837184	879.210231	-451.065763	970.309116	780.828253	-424.816057	923.835470	656.777684	-399.017044	674.943824	418.741016	-205.888812	611.193312	396.752815	-139.468329	585.850427	330.912933	-202.085522	1014.134962	450.186681	-314.938608	988.117530	369.511081	-388.984751	1028.936168	282.423847	-313.641750	414.566241	287.117545	-185.310748	509.378158	115.970819	-264.023200	482.547838	 96.129990	-173.774165	957.315039	114.974428	-313.087047	1154.020490	173.920630	-279.782315	1154.071023	145.803119	-367.535242	843.170024	1535.831108	-454.046091	909.154200	1524.027123	-79.888443	943.044883	1515.686614	-258.379467	817.016668	1571.330035	-272.447622	868.384850	1393.343885	-18.899419	793.658374	1388.531762	-18.414592	838.429517	1320.153868	 21.887781	812.746281	1249.914733	 39.026748	762.773545	1231.944609	-26.165301	742.327715	1444.067323	-505.418670	670.515092	1425.115193	-477.250442	704.848115	1364.345099	-520.819033	631.854684	1313.657904	-531.772579	609.015213	1320.748041	-448.811970	915.697001	1214.361767	-25.337070	983.422494	1193.073549	-125.220802	982.558134	1131.179407	-91.443981	728.266945	1227.760002	-516.278404	825.914155	1192.602707	-441.045695	802.225320	1142.302826	-481.462121	
328	  2.733333	916.567726	1066.037853	-394.127289	916.583596	1052.931766	-165.767549	758.481424	1102.315399	-327.577441	755.183213	1104.861363	-231.129027	820.738682	897.247639	-104.039686	754.464413	642.540240	-143.485474	897.482664	874.546714	-450.895072	970.141116	777.066622	-424.889862	923.918733	653.788393	-397.520917	677.627244	416.556670	-203.346658	612.662822	397.579744	-137.498921	584.992091	332.610285	-199.564703	1013.997177	447.842837	-312.716822	989.089041	367.145738	-387.030745	1028.846524	279.991929	-311.194451	412.796701	296.112845	-183.258759	501.075384	121.043998	-260.774653	471.603405	102.221684	-170.803320	957.103358	112.332344	-310.753917	1153.827086	171.641284	-277.707189	1153.683291	143.619978	-365.430656	844.437538	1533.349854	-455.269361	908.590687	1521.172465	-80.581949	943.475908	1513.148538	-259.078696	817.668276	1569.092100	-273.841125	866.844682	1390.532141	-19.955850	792.065670	1386.276663	-19.805951	836.242292	1317.416598	 20.450826	809.825979	1247.687930	 37.732986	760.604334	1229.867420	-27.863741	743.589489	1440.768640	-506.742184	671.785698	1421.410673	-478.511718	706.407490	1360.830826	-522.038680	633.828809	1309.636382	-532.566263	611.075474	1316.712031	-449.630668	912.806724	1210.341546	-25.644136	981.122539	1187.658236	-124.898447	979.039528	1125.854662	-90.826611	730.729042	1224.266561	-517.089640	828.714520	1189.849333	-442.010010	805.233562	1139.255941	-482.157530	
329	  2.741667	916.493915	1062.841795	-393.996818	916.916845	1051.108073	-163.998551	758.151132	1098.286451	-328.223495	754.663745	1101.409196	-231.662078	823.333209	893.739817	-104.186254	762.032765	637.490512	-142.397853	897.704406	869.660881	-450.847419	970.123525	773.171148	-424.996505	924.532887	650.626600	-395.789991	681.194497	413.861913	-200.990140	614.894767	398.155109	-135.641924	584.979355	334.167962	-197.159839	1013.664079	444.547124	-310.699955	988.978429	363.940876	-385.114469	1027.330300	276.475184	-308.886746	411.660306	305.057489	-181.796221	493.950197	126.236281	-257.093760	462.162937	109.071644	-167.194530	954.316500	108.907784	-308.366361	1151.373517	167.914089	-275.777350	1150.936569	139.770950	-363.417418	845.926292	1530.151904	-456.588653	907.987697	1517.589473	-81.237286	943.890711	1509.845722	-259.750848	818.337887	1566.168671	-275.272192	865.037757	1387.014536	-21.106989	790.224863	1383.379272	-21.325586	833.695770	1313.908040	 18.707617	806.442347	1244.770021	 36.196078	757.922495	1227.164197	-29.806074	745.231410	1436.626348	-508.254254	673.398838	1416.864095	-480.142580	708.429041	1356.436650	-523.443619	636.252975	1304.699828	-533.631542	613.460549	1311.825379	-450.717654	909.476901	1205.407291	-25.893528	978.635108	1181.155376	-124.036257	975.076451	1119.426590	-89.846164	733.595981	1219.794074	-517.966710	831.827812	1186.177766	-442.925049	808.592329	1135.293977	-482.834944	
330	  2.750000	915.947512	1058.995142	-393.411362	917.357632	1048.447673	-161.981328	757.675585	1093.478429	-328.842318	754.049448	1097.059424	-232.104041	826.329025	889.366705	-104.242941	770.192802	631.549978	-141.467013	897.474238	864.866129	-450.938265	970.373050	769.365268	-425.073388	925.683974	647.310676	-394.146080	685.654689	410.821979	-199.086021	617.941953	398.568831	-133.948075	585.873750	335.722166	-194.996383	1013.186735	440.344299	-309.006432	987.704361	359.901112	-383.340068	1024.430612	271.997711	-306.813878	411.071045	313.875898	-180.791093	488.165565	131.528390	-252.886567	454.657552	116.582324	-162.992715	949.096695	105.025436	-306.070768	1146.696919	162.901252	-273.796310	1146.000241	134.474658	-361.400424	847.635688	1526.202387	-457.988467	907.325015	1513.302560	-81.882421	944.294303	1505.766619	-260.386951	819.012785	1562.537057	-276.744424	862.976208	1382.814861	-22.356282	788.157967	1379.891292	-22.984078	830.810410	1309.675365	 16.663637	802.632329	1241.191653	 34.432759	754.717755	1223.863746	-31.958770	747.256355	1431.654413	-509.929233	675.353169	1411.489891	-482.127480	710.920767	1351.163989	-524.982594	639.121323	1298.847082	-534.964309	616.150126	1306.092821	-452.090856	905.727522	1199.635885	-26.075159	975.930341	1173.612370	-122.617670	970.664534	1111.990380	-88.496976	736.860448	1214.385955	-518.895355	835.274573	1181.627527	-443.786275	812.292511	1130.436589	-483.506394	
